<svg width="33" height="37" viewBox="0 0 33 37" fill="none" xmlns="http://www.w3.org/2000/svg">
<path fill-rule="evenodd" clip-rule="evenodd" d="M27.5 15.8571C30.5377 15.8571 33 18.2236 33 21.1429V31.7143C33 34.6336 30.5377 37 27.5 37H5.5C2.46244 37 0 34.6336 0 31.7143V21.1429C0 18.2236 2.46244 15.8571 5.5 15.8571V10.5714C5.5 4.73299 10.4249 0 16.5 0C22.5751 0 27.5 4.73299 27.5 10.5714V15.8571ZM16.5 3.52381C20.55 3.52381 23.8333 6.67913 23.8333 10.5714V15.8571H9.16667V10.5714C9.16667 6.67913 12.4499 3.52381 16.5 3.52381ZM27.5 19.381H5.5C4.48749 19.381 3.66667 20.1698 3.66667 21.1429V31.7143C3.66667 32.6874 4.48749 33.4762 5.5 33.4762H27.5C28.5126 33.4762 29.3333 32.6874 29.3333 31.7143V21.1429C29.3333 20.1698 28.5126 19.381 27.5 19.381Z" fill="#B5CDF4"/>
</svg>
