<svg width="30" height="24" viewBox="0 0 30 24" fill="none" xmlns="http://www.w3.org/2000/svg">
<path d="M14.9996 10.5771C13.3297 10.5771 11.9766 11.9422 11.9766 13.6268C11.9766 15.3123 13.3297 16.6764 14.9996 16.6764C16.6696 16.6764 18.0227 15.3123 18.0227 13.6268C18.0227 11.9422 16.6696 10.5771 14.9996 10.5771Z" fill="white"/>
<path d="M29.1431 5.13891C28.6167 4.60605 27.875 4.27096 27.0657 4.27096H23.8898C23.6344 4.27189 23.3954 4.11896 23.2855 3.87176L22.3343 1.74223C21.8637 0.686602 20.8172 0 19.6564 0H10.3436C9.1827 0 8.13627 0.68666 7.66477 1.74135V1.74229L6.71443 3.87182C6.60457 4.11902 6.36562 4.27189 6.11016 4.27102H2.93426C2.1249 4.27102 1.38246 4.60611 0.855117 5.13896C0.327773 5.66988 0 6.41238 0 7.2208V20.8878C0 21.6962 0.327773 22.4387 0.855117 22.9697C1.38246 23.5025 2.12496 23.8376 2.93426 23.8367H16.1636H27.0657C27.8751 23.8376 28.6167 23.5025 29.1431 22.9697C29.6722 22.4387 30 21.6962 30 20.8878V7.2208C30 6.41238 29.6722 5.669 29.1431 5.13891ZM27.7313 20.8878C27.7313 21.0819 27.6562 21.2467 27.5336 21.373C27.4072 21.4966 27.2497 21.568 27.0657 21.5689H16.1636H2.93426C2.74934 21.568 2.59096 21.4966 2.46645 21.373C2.34375 21.2467 2.26869 21.0819 2.26869 20.8878V7.2208C2.26869 7.02668 2.34375 6.86191 2.46645 6.73559C2.59096 6.61107 2.74934 6.54059 2.93426 6.53965H6.11021C7.26926 6.53965 8.31662 5.85211 8.78725 4.79555L9.73576 2.66695C9.84744 2.42068 10.0855 2.26775 10.3437 2.26775H19.6564C19.9146 2.26775 20.1527 2.42062 20.2634 2.66602L21.2138 4.79642C21.6834 5.85205 22.7308 6.53959 23.8898 6.53959H27.0658C27.2498 6.54053 27.4073 6.61102 27.5336 6.73553C27.6563 6.86186 27.7314 7.02756 27.7314 7.22074V20.8878H27.7313Z" fill="white"/>
<path d="M14.9996 6.93457C13.1648 6.93363 11.4986 7.68715 10.3002 8.89746C9.09992 10.1078 8.35649 11.7841 8.35742 13.6271C8.35649 15.47 9.09992 17.1482 10.3002 18.3567C11.4986 19.568 13.1649 20.3205 14.9996 20.3205C16.8334 20.3205 18.5005 19.568 19.6989 18.3567C20.8992 17.1482 21.6426 15.47 21.6417 13.6271C21.6426 11.7841 20.8992 10.1078 19.6989 8.89746C18.5005 7.68709 16.8334 6.93363 14.9996 6.93457ZM18.4584 17.1271C17.5694 18.0234 16.3518 18.5737 14.9996 18.5737C13.6464 18.5737 12.4297 18.0234 11.5398 17.1271C10.6526 16.2308 10.1042 14.9985 10.1033 13.6271C10.1042 12.2565 10.6526 11.0242 11.5398 10.1271C12.4297 9.23074 13.6464 8.68143 14.9996 8.68049C16.3518 8.68143 17.5694 9.23074 18.4584 10.1271C19.3464 11.0243 19.8949 12.2566 19.8958 13.6271C19.8949 14.9985 19.3465 16.2308 18.4584 17.1271Z" fill="white"/>
<path d="M24.9955 8.49951H22.9795V10.5155H24.9955V8.49951Z" fill="white"/>
</svg>
