<svg width="100" height="100" viewBox="0 0 100 100" fill="none" xmlns="http://www.w3.org/2000/svg">
<path d="M6.25 22.0834V61.8334C6.25 66.0548 7.92693 70.1032 10.9119 73.0882C13.8968 76.0731 17.9453 77.7501 22.1667 77.7501H30.125V89.6667L54.1667 77.7501H78.0417C82.263 77.7501 86.3115 76.0731 89.2964 73.0882C92.2814 70.1032 93.9583 66.0548 93.9583 61.8334V22.0834C93.9583 17.8621 92.2814 13.8136 89.2964 10.8286C86.3115 7.84368 82.263 6.16675 78.0417 6.16675H22.1667C17.9453 6.16675 13.8968 7.84368 10.9119 10.8286C7.92693 13.8136 6.25 17.8621 6.25 22.0834Z" stroke="#020202" stroke-width="5" stroke-miterlimit="10"/>
</svg>
