<svg width="222" height="211" viewBox="0 0 222 211" fill="none" xmlns="http://www.w3.org/2000/svg">
<rect width="221.612" height="211" rx="105.5" fill="white"/>
<g clip-path="url(#clip0_1519_5956)">
<path fill-rule="evenodd" clip-rule="evenodd" d="M110.294 23.272C64.318 23.272 27.1509 60.782 27.1509 107.187C27.1509 144.281 50.9651 175.68 84.0018 186.794C88.1322 187.629 89.6452 184.988 89.6452 182.766C89.6452 180.821 89.509 174.153 89.509 167.205C66.3806 172.207 61.5644 157.202 61.5644 157.202C57.8475 147.476 52.3402 144.977 52.3402 144.977C44.7703 139.836 52.8916 139.836 52.8916 139.836C61.2887 140.392 65.6948 148.45 65.6948 148.45C73.1268 161.23 85.1029 157.619 89.9209 155.396C90.6084 149.977 92.8124 146.226 95.1524 144.143C76.7059 142.198 57.2978 134.973 57.2978 102.74C57.2978 93.5709 60.5994 86.0689 65.8309 80.2344C65.0055 78.1509 62.1141 69.5355 66.658 58.0046C66.658 58.0046 73.6782 55.7812 89.5073 66.6182C96.2843 64.7814 103.273 63.8469 110.294 63.8391C117.314 63.8391 124.471 64.8126 131.079 66.6182C146.91 55.7812 153.93 58.0046 153.93 58.0046C158.474 69.5355 155.581 78.1509 154.755 80.2344C160.125 86.0689 163.29 93.5709 163.29 102.74C163.29 134.973 143.882 142.058 125.298 144.143C128.327 146.782 130.941 151.783 130.941 159.703C130.941 170.956 130.805 179.987 130.805 182.765C130.805 184.988 132.32 187.629 136.448 186.795C169.485 175.679 193.299 144.281 193.299 107.187C193.435 60.782 156.132 23.272 110.294 23.272Z" fill="#24292F"/>
</g>
<defs>
<clipPath id="clip0_1519_5956">
<rect width="166.783" height="163.68" fill="white" transform="translate(27.1509 23.272)"/>
</clipPath>
</defs>
</svg>
