<svg width="18" height="18" viewBox="0 0 18 18" fill="none" xmlns="http://www.w3.org/2000/svg">
<path d="M12.5331 17.3335C12.3121 17.3335 12.1001 17.2457 11.9439 17.0894C11.7876 16.9331 11.6998 16.7212 11.6998 16.5002V14.3335C11.7257 14.0843 11.699 13.8324 11.6215 13.5941C11.544 13.3558 11.4174 13.1365 11.2498 12.9502C11.146 12.8376 11.0753 12.6987 11.0453 12.5486C11.0153 12.3986 11.0272 12.2431 11.0797 12.0994C11.1322 11.9556 11.2233 11.8291 11.343 11.7337C11.4626 11.6383 11.6063 11.5777 11.7581 11.5585C13.7915 11.3168 15.6665 10.6668 15.6665 7.14183C15.6671 6.48356 15.4728 5.83984 15.1081 5.29183C14.7716 4.78735 14.6487 4.17005 14.7665 3.57516C14.8416 3.1871 14.8416 2.78823 14.7665 2.40016C14.1425 2.61114 13.5549 2.91756 13.0248 3.3085C12.9246 3.37968 12.8098 3.4278 12.6888 3.44941C12.5678 3.47102 12.4435 3.46558 12.3248 3.4335C10.8209 3.00854 9.22868 3.00854 7.72479 3.4335C7.60611 3.46558 7.48181 3.47102 7.36079 3.44941C7.23976 3.4278 7.12502 3.37968 7.02479 3.3085C6.4914 2.91303 5.89765 2.6063 5.26645 2.40016C5.18721 2.78782 5.18721 3.1875 5.26645 3.57516C5.37569 4.17754 5.24726 4.79881 4.90812 5.3085C4.54501 5.86035 4.35095 6.50623 4.34979 7.16683C4.34979 10.4085 5.91645 11.2752 8.26645 11.5752C8.42023 11.5942 8.56563 11.6558 8.68634 11.753C8.80705 11.8501 8.89828 11.979 8.94979 12.1252C8.99824 12.267 9.00756 12.4192 8.97676 12.5659C8.94596 12.7125 8.87619 12.8482 8.77479 12.9585C8.6127 13.1318 8.4883 13.3367 8.40941 13.5605C8.33052 13.7842 8.29887 14.0219 8.31645 14.2585V16.5002C8.31645 16.7212 8.22866 16.9331 8.07238 17.0894C7.9161 17.2457 7.70413 17.3335 7.48312 17.3335C7.26211 17.3335 7.05015 17.2457 6.89387 17.0894C6.73758 16.9331 6.64979 16.7212 6.64979 16.5002V16.0252C5.83092 16.1193 5.00148 16.0096 4.23527 15.7057C3.46907 15.4019 2.78987 14.9133 2.25812 14.2835C1.98479 13.9805 1.65685 13.7318 1.29145 13.5502C1.1853 13.5228 1.08558 13.4748 0.997977 13.4089C0.910375 13.343 0.836611 13.2605 0.780896 13.1661C0.725181 13.0717 0.688606 12.9672 0.67326 12.8587C0.657913 12.7501 0.664096 12.6396 0.691455 12.5335C0.718813 12.4273 0.766812 12.3276 0.832711 12.24C0.89861 12.1524 0.981118 12.0787 1.07552 12.0229C1.16993 11.9672 1.27439 11.9306 1.38293 11.9153C1.49147 11.9 1.60197 11.9061 1.70812 11.9335C2.34916 12.167 2.92195 12.5565 3.37479 13.0668C4.20812 13.9002 5.04145 14.6335 6.62479 14.3335C6.59695 13.8861 6.66221 13.4377 6.81645 13.0168C5.09979 12.5835 2.64979 11.3502 2.64979 7.1835C2.64759 6.19652 2.93755 5.23097 3.48312 4.4085C3.58446 4.25667 3.62327 4.07158 3.59145 3.89183C3.42306 2.99231 3.51857 2.06328 3.86645 1.21683C3.91372 1.10397 3.98527 1.0029 4.076 0.920804C4.16674 0.83871 4.27444 0.777605 4.39145 0.74183C4.67479 0.658496 5.69145 0.49183 7.61645 1.74183C9.17477 1.36683 10.7998 1.36683 12.3581 1.74183C14.2831 0.49183 15.2998 0.650163 15.5748 0.74183C15.6918 0.777605 15.7995 0.83871 15.8902 0.920804C15.981 1.0029 16.0525 1.10397 16.0998 1.21683C16.4484 2.06602 16.5439 2.99792 16.3748 3.90016C16.3577 3.98146 16.3571 4.06533 16.3728 4.14689C16.3885 4.22845 16.4204 4.30605 16.4665 4.37516C17.0136 5.2 17.3036 6.16869 17.2998 7.1585C17.2998 11.3835 14.8665 12.6085 13.1331 12.9918C13.2858 13.439 13.3481 13.912 13.3165 14.3835V16.5002C13.3168 16.7128 13.2359 16.9175 13.0903 17.0724C12.9447 17.2273 12.7454 17.3207 12.5331 17.3335Z" fill="#B5CDF4"/>
</svg>
