<svg width="39" height="42" viewBox="0 0 39 42" fill="none" xmlns="http://www.w3.org/2000/svg">
<path fill-rule="evenodd" clip-rule="evenodd" d="M6.5 42C2.91016 42 0 39.4071 0 36.2089V16.905C0 16.8395 0.00366186 16.7749 0.0107902 16.7111H0C0 15.5993 0.495733 14.533 1.37815 13.7468L14.9038 1.69619C17.4421 -0.565397 21.5577 -0.565397 24.0961 1.69619L37.6218 13.7468C38.5043 14.533 39 15.5993 39 16.7111H38.9892C38.9963 16.7749 39 16.8395 39 16.905V36.2089C39 39.4071 36.0899 42 32.5 42H6.5ZM21.032 4.42615L34.6667 16.5739V36.2089C34.6667 37.2748 33.6966 38.1392 32.5 38.1392H26V28.4873C26 25.2889 23.0899 22.6962 19.5 22.6962C15.91 22.6962 13 25.2889 13 28.4873V38.1392H6.5C5.30339 38.1392 4.33333 37.2748 4.33333 36.2089V16.574L17.9679 4.42615C18.814 3.6723 20.186 3.6723 21.032 4.42615Z" fill="#B5CDF4"/>
</svg>
