<svg width="20" height="20" viewBox="0 0 20 20" fill="none" xmlns="http://www.w3.org/2000/svg">
<g clip-path="url(#clip0_879_2891)">
<path d="M18.3846 2.84089C17.3373 1.79361 15.9508 1.22122 14.4711 1.22122C12.9913 1.22122 11.6006 1.79785 10.5533 2.84513L10.0064 3.39208L9.45093 2.83665C8.40365 1.78937 7.0087 1.2085 5.52895 1.2085C4.05344 1.2085 2.66273 1.78513 1.61969 2.82817C0.57242 3.87544 -0.00421676 5.26615 2.32169e-05 6.7459C2.32169e-05 8.22565 0.5809 9.61212 1.62817 10.6594L9.59085 18.6221C9.70108 18.7323 9.84948 18.7917 9.99364 18.7917C10.1378 18.7917 10.2862 18.7365 10.3964 18.6263L18.3761 10.6764C19.4233 9.62908 20 8.23837 20 6.75862C20.0042 5.27887 19.4318 3.88816 18.3846 2.84089ZM17.5705 9.86652L9.99364 17.4137L2.43377 9.8538C1.60273 9.02277 1.14482 7.92038 1.14482 6.7459C1.14482 5.57143 1.59849 4.46904 2.42953 3.64224C3.25632 2.81545 4.35872 2.35753 5.52895 2.35753C6.70342 2.35753 7.81006 2.81545 8.64109 3.64648L9.59932 4.60472C9.82404 4.82943 10.1844 4.82943 10.4092 4.60472L11.3589 3.65496C12.1899 2.82393 13.2966 2.36601 14.4668 2.36601C15.637 2.36601 16.7394 2.82393 17.5705 3.65072C18.4015 4.48176 18.8552 5.58415 18.8552 6.75862C18.8594 7.93309 18.4015 9.03549 17.5705 9.86652Z" fill="#B5CDF4"/>
</g>
<defs>
<clipPath id="clip0_879_2891">
<rect width="20" height="20" fill="white"/>
</clipPath>
</defs>
</svg>
