<svg width="18" height="22" viewBox="0 0 18 22" fill="none" xmlns="http://www.w3.org/2000/svg">
<path fill-rule="evenodd" clip-rule="evenodd" d="M13.2724 9.27244C13.2724 11.4816 11.4816 13.2724 9.27242 13.2724C7.06332 13.2724 5.27246 11.4816 5.27246 9.27244C5.27246 7.06332 7.06332 5.27246 9.27242 5.27246C11.4816 5.27246 13.2724 7.06332 13.2724 9.27244ZM11.2724 9.27244C11.2724 10.377 10.377 11.2724 9.27242 11.2724C8.16792 11.2724 7.27242 10.377 7.27242 9.27244C7.27242 8.16789 8.16792 7.27246 9.27242 7.27246C10.377 7.27246 11.2724 8.16789 11.2724 9.27244Z" fill="#B5CDF480"/>
<path fill-rule="evenodd" clip-rule="evenodd" d="M2.79417 15.5183C-0.805758 12.0909 -0.945618 6.39409 2.48178 2.79417C5.90918 -0.805757 11.6059 -0.945617 15.2059 2.48178C18.8058 5.90918 18.9457 11.6059 15.5183 15.2059L9.3124 21.7241L2.79417 15.5183ZM14.0698 13.8268L9.243 18.8965L4.17324 14.0698C1.3733 11.404 1.26452 6.97318 3.93028 4.17324C6.59603 1.3733 11.0268 1.26452 13.8268 3.93028C16.6267 6.59603 16.7355 11.0268 14.0698 13.8268Z" fill="#B5CDF480"/>
</svg>
