<svg width="65" height="65" viewBox="0 0 65 65" fill="none" xmlns="http://www.w3.org/2000/svg">
<path d="M24.3751 37.9167C25.8708 37.9167 27.0834 36.7041 27.0834 35.2083C27.0834 33.7125 25.8708 32.5 24.3751 32.5C22.8793 32.5 21.6667 33.7125 21.6667 35.2083C21.6667 36.7041 22.8793 37.9167 24.3751 37.9167Z" fill="#B5CDF4"/>
<path d="M43.3334 35.2083C43.3334 36.7041 42.1209 37.9167 40.6251 37.9167C39.1293 37.9167 37.9167 36.7041 37.9167 35.2083C37.9167 33.7125 39.1293 32.5 40.6251 32.5C42.1209 32.5 43.3334 33.7125 43.3334 35.2083Z" fill="#B5CDF4"/>
<path fill-rule="evenodd" clip-rule="evenodd" d="M32.5001 59.5832C47.4577 59.5832 59.5834 47.4574 59.5834 32.4998C59.5834 17.5421 47.4577 5.4165 32.5001 5.4165C17.5424 5.4165 5.41675 17.5421 5.41675 32.4998C5.41675 47.4574 17.5424 59.5832 32.5001 59.5832ZM32.5001 54.1665C44.4663 54.1665 54.1668 44.4661 54.1668 32.4998C54.1668 30.2349 53.8193 28.0511 53.1747 25.9991C50.9143 26.6107 48.5367 26.937 46.0829 26.937C35.9995 26.937 27.2031 21.4265 22.5409 13.2526C15.5857 16.8588 10.8334 24.1243 10.8334 32.4998C10.8334 44.4661 20.5339 54.1665 32.5001 54.1665Z" fill="#B5CDF4"/>
</svg>
