<svg width="24" height="8" viewBox="0 0 24 8" fill="none" xmlns="http://www.w3.org/2000/svg">
<path d="M3.57013 0.342846C3.0984 0.342826 2.63113 0.434175 2.19413 0.611846C1.77059 0.782968 1.38365 1.03346 1.05413 1.34985C0.727651 1.66375 0.465138 2.03799 0.281135 2.45184C0.091695 2.8807 -0.00410246 3.34503 0.000134663 3.81385C-0.0039128 4.28103 0.0918918 4.74369 0.281135 5.17084C0.46588 5.58625 0.72902 5.96211 1.05613 6.27784C1.73989 6.93376 2.65267 7.29686 3.60013 7.28984C3.93346 7.2908 4.26542 7.24707 4.58713 7.15984C4.89833 7.07489 5.19693 6.94913 5.47513 6.78585L6.16213 7.48385C6.21599 7.53839 6.28014 7.5817 6.35087 7.61125C6.42159 7.64081 6.49748 7.65603 6.57413 7.65603C6.65079 7.65603 6.72668 7.64081 6.7974 7.61125C6.86813 7.5817 6.93228 7.53839 6.98613 7.48385C7.09392 7.37521 7.1544 7.22838 7.1544 7.07534C7.1544 6.92231 7.09392 6.77548 6.98613 6.66684L6.36213 6.04285C6.62286 5.73935 6.83015 5.39376 6.97513 5.02084C7.12586 4.636 7.20254 4.22615 7.20113 3.81284C7.20506 3.34396 7.10892 2.87963 6.91913 2.45085C6.73487 2.03664 6.47163 1.66232 6.14413 1.34885C5.81291 1.03295 5.4247 0.782853 5.00013 0.611846C4.55632 0.431121 4.08132 0.339382 3.60213 0.341845C3.5918 0.341801 3.58147 0.341801 3.57113 0.341845L3.57013 0.342846ZM14.8761 0.527845V2.01185H14.1111V3.07485H14.8761V5.21685C14.8761 5.63585 14.9291 5.97784 15.0351 6.24484C15.125 6.48751 15.2738 6.70401 15.4681 6.87485C15.6539 7.03056 15.8745 7.13929 16.1111 7.19185C16.3377 7.25075 16.571 7.27966 16.8051 7.27784H17.6581V6.26485H16.9221C16.8031 6.26569 16.6846 6.24952 16.5701 6.21685C16.461 6.18454 16.3613 6.12659 16.2791 6.04785C16.1877 5.95727 16.1191 5.8462 16.0791 5.72385C16.0256 5.55619 16.0006 5.38076 16.0051 5.20484V3.07485H17.6711V2.01185H16.0111V0.527845H14.8761ZM9.40013 0.855845C9.30944 0.855845 9.21963 0.873726 9.13585 0.908464C9.05207 0.943202 8.97596 0.994116 8.91188 1.05829C8.84779 1.12247 8.79699 1.19866 8.76237 1.28249C8.72775 1.36632 8.71 1.45615 8.71013 1.54685C8.71013 1.72984 8.78283 1.90535 8.91223 2.03475C9.04163 2.16415 9.21713 2.23685 9.40013 2.23685C9.49083 2.23698 9.58066 2.21923 9.66449 2.18461C9.74832 2.14999 9.82451 2.09919 9.88868 2.0351C9.95286 1.97102 10.0038 1.89491 10.0385 1.81113C10.0733 1.72735 10.0911 1.63754 10.0911 1.54685C10.0913 1.45615 10.0735 1.36632 10.0389 1.28249C10.0043 1.19866 9.95348 1.12247 9.88939 1.05829C9.82531 0.994116 9.7492 0.943202 9.66542 0.908464C9.58164 0.873726 9.49183 0.855845 9.40113 0.855845H9.40013ZM12.1711 0.855845C12.0804 0.855845 11.9906 0.873726 11.9069 0.908464C11.8231 0.943202 11.747 0.994116 11.6829 1.05829C11.6188 1.12247 11.568 1.19866 11.5334 1.28249C11.4988 1.36632 11.481 1.45615 11.4811 1.54685C11.4811 1.72984 11.5538 1.90535 11.6832 2.03475C11.8126 2.16415 11.9881 2.23685 12.1711 2.23685C12.2618 2.23698 12.3517 2.21923 12.4355 2.18461C12.5193 2.14999 12.5955 2.09919 12.6597 2.0351C12.7239 1.97102 12.7748 1.89491 12.8095 1.81113C12.8443 1.72735 12.8621 1.63754 12.8621 1.54685C12.8623 1.45615 12.8445 1.36632 12.8099 1.28249C12.7753 1.19866 12.7245 1.12247 12.6604 1.05829C12.5963 0.994116 12.5202 0.943202 12.4364 0.908464C12.3526 0.873726 12.2628 0.855845 12.1721 0.855845H12.1711ZM3.57113 1.39385C3.58113 1.39378 3.59113 1.39378 3.60113 1.39385C3.92062 1.39231 4.23707 1.45594 4.53113 1.58085C4.81568 1.70055 5.07379 1.87523 5.2907 2.09488C5.5076 2.31453 5.67902 2.57482 5.79513 2.86085C5.92028 3.16427 5.98352 3.48964 5.98113 3.81785C5.98403 4.1461 5.92078 4.47157 5.79513 4.77484C5.6778 5.0609 5.50594 5.32141 5.28913 5.54184C5.06817 5.76438 4.80511 5.94071 4.51531 6.06054C4.2255 6.18038 3.91474 6.24133 3.60113 6.23984C3.28165 6.24243 2.96505 6.17911 2.67113 6.05384C2.38876 5.93355 2.13237 5.75968 1.91613 5.54184C1.69209 5.31469 1.51503 5.04559 1.39509 4.74994C1.27515 4.45429 1.21467 4.13789 1.21713 3.81885C1.21253 3.17338 1.46388 2.55239 1.91613 2.09185C2.13288 1.87442 2.38958 1.70091 2.67213 1.58085C2.95607 1.45947 3.26135 1.3959 3.57013 1.39385H3.57113ZM21.2191 2.16684C20.8693 2.16688 20.5228 2.23516 20.1991 2.36785C19.8934 2.49578 19.6164 2.68345 19.3841 2.91985C19.1563 3.15323 18.9778 3.43005 18.8591 3.73385C18.7341 4.05161 18.6709 4.39036 18.6731 4.73185C18.6702 5.07307 18.7334 5.41163 18.8591 5.72885C18.979 6.03199 19.1574 6.30858 19.3841 6.54285C19.616 6.77823 19.8933 6.96399 20.1991 7.08884C20.5351 7.22608 20.8953 7.2941 21.2581 7.28884C21.4323 7.28887 21.606 7.2701 21.7761 7.23284C21.9338 7.19898 22.0878 7.15009 22.2361 7.08684C22.3738 7.02815 22.5056 6.95684 22.6301 6.87384C22.7473 6.79601 22.8574 6.70801 22.9591 6.61085L23.0241 7.14084H24.0001V2.31185H23.0241L22.9561 2.84485C22.8562 2.74942 22.7485 2.66246 22.6341 2.58485C22.5104 2.49953 22.3784 2.42684 22.2401 2.36785C22.091 2.30533 21.9363 2.25679 21.7781 2.22284C21.607 2.18525 21.4323 2.16647 21.2571 2.16684C21.2445 2.16676 21.2318 2.16676 21.2191 2.16684ZM8.84413 3.01084V7.14885H9.95713V3.00985L8.84413 3.01084ZM11.6141 3.01084V7.14885H12.7281V3.00985L11.6141 3.01084ZM21.3341 3.15585C21.3421 3.15579 21.3501 3.15579 21.3581 3.15585C21.7685 3.1537 22.1631 3.31362 22.4561 3.60085C22.5996 3.74171 22.7132 3.91006 22.7901 4.09584C22.8725 4.29591 22.9136 4.51052 22.9111 4.72685C22.9142 4.94614 22.8731 5.16381 22.7901 5.36684C22.7132 5.55274 22.6007 5.72189 22.4591 5.86484C22.3193 6.00471 22.1526 6.11491 21.9691 6.18885C21.5814 6.34208 21.1499 6.34208 20.7621 6.18885C20.578 6.1145 20.4104 6.00437 20.2691 5.86484C20.126 5.72199 20.0128 5.55201 19.9361 5.36484C19.8533 5.16244 19.8119 4.94552 19.8141 4.72685C19.811 4.50862 19.8518 4.29199 19.9341 4.08985C20.01 3.90494 20.1214 3.73674 20.2621 3.59485C20.4022 3.45542 20.5688 3.34558 20.7521 3.27185C20.9368 3.19717 21.1349 3.15782 21.3341 3.15585Z" fill="#B5CDF4"/>
</svg>
