<svg width="29" height="7" viewBox="0 0 29 7" fill="none" xmlns="http://www.w3.org/2000/svg">
<path d="M7.66683 3.50016C7.66683 5.38719 6.13714 6.91683 4.25016 6.91683C2.36319 6.91683 0.833496 5.38719 0.833496 3.50016C0.833496 1.61314 2.36319 0.0834961 4.25016 0.0834961C6.13714 0.0834961 7.66683 1.61314 7.66683 3.50016Z" fill="#B5CDF4"/>
<path d="M17.9168 3.50016C17.9168 5.38719 16.3872 6.91683 14.5002 6.91683C12.6131 6.91683 11.0835 5.38719 11.0835 3.50016C11.0835 1.61314 12.6131 0.0834961 14.5002 0.0834961C16.3872 0.0834961 17.9168 1.61314 17.9168 3.50016Z" fill="#B5CDF4"/>
<path d="M24.7502 6.91683C26.6372 6.91683 28.1668 5.38719 28.1668 3.50016C28.1668 1.61314 26.6372 0.0834961 24.7502 0.0834961C22.8631 0.0834961 21.3335 1.61314 21.3335 3.50016C21.3335 5.38719 22.8631 6.91683 24.7502 6.91683Z" fill="#B5CDF4"/>
</svg>
