<svg width="26" height="26" viewBox="0 0 26 26" fill="none" xmlns="http://www.w3.org/2000/svg">
<path d="M12.4969 24.9829C12.4281 24.9142 12.3738 24.8325 12.3372 24.7425C12.3006 24.6525 12.2824 24.5561 12.2837 24.4589V21.3048C12.2837 21.2093 12.3025 21.1147 12.339 21.0265C12.3756 20.9383 12.4291 20.8581 12.4966 20.7906C12.5642 20.7231 12.6443 20.6695 12.7325 20.633C12.8208 20.5965 12.9153 20.5776 13.0108 20.5776C13.1063 20.5776 13.2008 20.5965 13.2891 20.633C13.3773 20.6695 13.4574 20.7231 13.525 20.7906C13.5925 20.8581 13.646 20.9383 13.6826 21.0265C13.7191 21.1147 13.7379 21.2093 13.7379 21.3048V24.4584C13.7406 24.6512 13.6666 24.837 13.5322 24.9752C13.3979 25.1135 13.2142 25.1927 13.0215 25.1955H13.0107C12.8181 25.1955 12.6333 25.119 12.4969 24.9829ZM20.5907 21.6199L18.3608 19.3901C18.292 19.3228 18.2372 19.2426 18.1995 19.1541C18.1619 19.0655 18.1422 18.9704 18.1417 18.8742C18.1411 18.7779 18.1596 18.6826 18.1962 18.5936C18.2327 18.5046 18.2866 18.4237 18.3546 18.3557C18.4226 18.2876 18.5035 18.2338 18.5925 18.1972C18.6815 18.1607 18.7769 18.1422 18.8731 18.1427C18.9693 18.1433 19.0645 18.163 19.153 18.2006C19.2416 18.2382 19.3218 18.2931 19.389 18.3619L21.6188 20.5917C21.6877 20.6589 21.7425 20.7391 21.7801 20.8277C21.8177 20.9163 21.8374 21.0114 21.838 21.1076C21.8386 21.2038 21.82 21.2992 21.7835 21.3882C21.7469 21.4772 21.6931 21.5581 21.625 21.6261C21.557 21.6941 21.4761 21.748 21.3871 21.7845C21.2981 21.8211 21.2028 21.8396 21.1065 21.839C21.0103 21.8385 20.9152 21.8188 20.8266 21.7812C20.7381 21.7435 20.6579 21.6887 20.5907 21.6199ZM4.40231 21.6336C4.33258 21.5659 4.27714 21.4848 4.23928 21.3952C4.20143 21.3057 4.18192 21.2094 4.18192 21.1122C4.18192 21.015 4.20143 20.9187 4.23928 20.8291C4.27714 20.7396 4.33258 20.6585 4.40231 20.5907L6.63213 18.3609C6.69934 18.2921 6.77955 18.2373 6.86811 18.1996C6.95666 18.162 7.05181 18.1423 7.14802 18.1418C7.24424 18.1412 7.33961 18.1597 7.42861 18.1963C7.51761 18.2328 7.59848 18.2867 7.66651 18.3547C7.73455 18.4227 7.7884 18.5036 7.82496 18.5926C7.86151 18.6816 7.88003 18.777 7.87945 18.8732C7.87887 18.9694 7.8592 19.0645 7.82158 19.1531C7.78396 19.2417 7.72913 19.3219 7.66028 19.3891L5.43047 21.6189C5.2961 21.757 5.11238 21.8362 4.91969 21.839C4.72699 21.8417 4.54059 21.7679 4.40231 21.6336ZM7.4217 13.0107C7.4217 11.9053 7.7495 10.8247 8.36363 9.90561C8.97776 8.9865 9.85065 8.27013 10.8719 7.84711C11.8932 7.42409 13.0169 7.31341 14.1011 7.52907C15.1853 7.74472 16.1811 8.27702 16.9628 9.05867C17.7444 9.84031 18.2767 10.8362 18.4924 11.9203C18.708 13.0045 18.5974 14.1283 18.1743 15.1495C17.7513 16.1708 17.035 17.0437 16.1158 17.6578C15.1967 18.272 14.1162 18.5998 13.0107 18.5998C11.5284 18.5998 10.1068 18.0109 9.0587 16.9628C8.01055 15.9146 7.4217 14.493 7.4217 13.0107ZM20.5775 13.0107C20.5775 12.9152 20.5963 12.8207 20.6329 12.7324C20.6694 12.6442 20.723 12.5641 20.7905 12.4966C20.858 12.429 20.9382 12.3755 21.0264 12.339C21.1146 12.3024 21.2092 12.2836 21.3047 12.2836H24.4583C24.5549 12.2819 24.6509 12.2994 24.7407 12.3351C24.8305 12.3709 24.9122 12.4241 24.9811 12.4918C25.0501 12.5595 25.1048 12.6403 25.1422 12.7294C25.1796 12.8184 25.1988 12.9141 25.1988 13.0107C25.1988 13.1073 25.1796 13.203 25.1422 13.2921C25.1048 13.3812 25.0501 13.4619 24.9811 13.5296C24.9122 13.5973 24.8305 13.6506 24.7407 13.6863C24.6509 13.722 24.5549 13.7395 24.4583 13.7378H21.3048C21.2093 13.7378 21.1147 13.719 21.0265 13.6825C20.9383 13.6459 20.8581 13.5924 20.7906 13.5249C20.723 13.4574 20.6695 13.3772 20.6329 13.289C20.5963 13.2008 20.5775 13.1062 20.5775 13.0107ZM1.56314 13.7377C1.46687 13.7389 1.37132 13.721 1.28203 13.685C1.19273 13.6491 1.11146 13.5957 1.04295 13.5281C0.974438 13.4604 0.920038 13.3799 0.882909 13.2911C0.84578 13.2022 0.82666 13.1069 0.82666 13.0107C0.82666 12.9144 0.84578 12.8191 0.882909 12.7302C0.920038 12.6414 0.974438 12.5609 1.04295 12.4932C1.11146 12.4256 1.19273 12.3722 1.28203 12.3363C1.37132 12.3003 1.46687 12.2824 1.56314 12.2836H4.7168C4.90965 12.2836 5.0946 12.3603 5.23096 12.4966C5.36732 12.633 5.44393 12.8179 5.44393 13.0108C5.44393 13.2036 5.36732 13.3886 5.23096 13.5249C5.0946 13.6613 4.90965 13.7379 4.7168 13.7379L1.56314 13.7377ZM18.3616 7.66086C18.2941 7.59336 18.2405 7.51321 18.204 7.42501C18.1674 7.3368 18.1486 7.24226 18.1486 7.14678C18.1486 7.05131 18.1674 6.95677 18.204 6.86856C18.2405 6.78036 18.2941 6.70021 18.3616 6.63271L20.5914 4.40289C20.6586 4.33404 20.7388 4.27922 20.8274 4.2416C20.9159 4.20397 21.0111 4.1843 21.1073 4.18372C21.2035 4.18314 21.2989 4.20167 21.3879 4.23822C21.4769 4.27477 21.5577 4.32863 21.6258 4.39666C21.6938 4.4647 21.7477 4.54556 21.7842 4.63456C21.8208 4.72357 21.8393 4.81894 21.8387 4.91516C21.8381 5.01137 21.8185 5.10651 21.7808 5.19507C21.7432 5.28363 21.6884 5.36383 21.6195 5.43105L19.3897 7.66086C19.3222 7.7284 19.2421 7.78197 19.1538 7.81852C19.0656 7.85507 18.9711 7.87389 18.8756 7.87389C18.7801 7.87389 18.6855 7.85507 18.5973 7.81852C18.5091 7.78197 18.4291 7.7284 18.3616 7.66086ZM6.63274 7.65989L4.40292 5.43007C4.33407 5.36286 4.27925 5.28265 4.24163 5.1941C4.204 5.10554 4.18433 5.0104 4.18375 4.91418C4.18317 4.81797 4.2017 4.72259 4.23825 4.63359C4.2748 4.54459 4.32866 4.46372 4.39669 4.39569C4.46473 4.32765 4.54559 4.2738 4.63459 4.23725C4.7236 4.20069 4.81897 4.18217 4.91519 4.18275C5.0114 4.18333 5.10654 4.203 5.1951 4.24062C5.28366 4.27824 5.36386 4.33307 5.43108 4.40192L7.66089 6.63173C7.72897 6.69913 7.78307 6.77931 7.82006 6.86767C7.85706 6.95603 7.87623 7.05084 7.87647 7.14663C7.87671 7.24243 7.85802 7.33732 7.82147 7.42587C7.78492 7.51442 7.73123 7.59487 7.66349 7.66261C7.59575 7.73034 7.51529 7.78402 7.42674 7.82056C7.33818 7.8571 7.24328 7.87578 7.14749 7.87553C7.05169 7.87527 6.95689 7.85609 6.86853 7.81909C6.78018 7.78208 6.70012 7.72798 6.63274 7.65989ZM12.2839 4.71677V1.56311C12.2839 1.55994 12.2839 1.55681 12.2839 1.55373C12.2839 1.45825 12.3027 1.3637 12.3393 1.27549C12.3758 1.18728 12.4294 1.10713 12.4969 1.03961C12.5644 0.972099 12.6445 0.918543 12.7328 0.882005C12.821 0.845466 12.9155 0.82666 13.011 0.82666C13.1065 0.82666 13.201 0.845466 13.2892 0.882005C13.3774 0.918543 13.4576 0.972099 13.5251 1.03961C13.5926 1.10713 13.6462 1.18728 13.6827 1.27549C13.7192 1.3637 13.7381 1.45825 13.7381 1.55373C13.7381 1.55681 13.7381 1.5599 13.7381 1.56299V4.71677C13.7381 4.81225 13.7192 4.9068 13.6827 4.99501C13.6462 5.08322 13.5926 5.16337 13.5251 5.23089C13.4576 5.2984 13.3774 5.35196 13.2892 5.38849C13.201 5.42503 13.1065 5.44384 13.011 5.44384C12.9155 5.44384 12.821 5.42503 12.7328 5.38849C12.6445 5.35196 12.5644 5.2984 12.4969 5.23089C12.4294 5.16337 12.3758 5.08322 12.3393 4.99501C12.3027 4.9068 12.2839 4.81225 12.2839 4.71677Z" fill="#F471B5"/>
</svg>
