<svg width="41" height="41" viewBox="0 0 41 41" fill="none" xmlns="http://www.w3.org/2000/svg">
<path d="M13.6668 20.5002C13.6668 22.3872 12.1371 23.9168 10.2502 23.9168C8.36319 23.9168 6.8335 22.3872 6.8335 20.5002C6.8335 18.6131 8.36319 17.0835 10.2502 17.0835C12.1371 17.0835 13.6668 18.6131 13.6668 20.5002Z" fill="#B5CDF4"/>
<path d="M23.9168 20.5002C23.9168 22.3872 22.3872 23.9168 20.5002 23.9168C18.6131 23.9168 17.0835 22.3872 17.0835 20.5002C17.0835 18.6131 18.6131 17.0835 20.5002 17.0835C22.3872 17.0835 23.9168 18.6131 23.9168 20.5002Z" fill="#B5CDF4"/>
<path d="M30.7502 23.9168C32.6372 23.9168 34.1668 22.3872 34.1668 20.5002C34.1668 18.6131 32.6372 17.0835 30.7502 17.0835C28.8631 17.0835 27.3335 18.6131 27.3335 20.5002C27.3335 22.3872 28.8631 23.9168 30.7502 23.9168Z" fill="#B5CDF4"/>
</svg>
