<svg width="20" height="18" viewBox="0 0 20 18" fill="none" xmlns="http://www.w3.org/2000/svg">
<path d="M19.1668 1.50008C18.3688 2.06298 17.4853 2.4935 16.5502 2.77508C16.0483 2.198 15.3813 1.78899 14.6394 1.60335C13.8974 1.41771 13.1164 1.46441 12.4019 1.73712C11.6874 2.00984 11.0739 2.49541 10.6443 3.12818C10.2148 3.76094 9.98991 4.51036 10.0002 5.27508V6.10841C8.53569 6.14639 7.08456 5.82159 5.776 5.16295C4.46745 4.50431 3.34209 3.53228 2.50016 2.33341C2.50016 2.33341 -0.833171 9.83341 6.66683 13.1667C4.9506 14.3317 2.90613 14.9159 0.833496 14.8334C8.3335 19.0001 17.5002 14.8334 17.5002 5.25008C17.4994 5.01796 17.4771 4.78641 17.4335 4.55841C18.284 3.71966 18.8842 2.66067 19.1668 1.50008Z" stroke="#B5CDF4" stroke-width="2" stroke-linecap="round" stroke-linejoin="round"/>
</svg>
