<svg width="100" height="100" viewBox="0 0 100 100" fill="none" xmlns="http://www.w3.org/2000/svg">
<g clip-path="url(#clip0_173_779)">
<path d="M91.9228 14.2042C86.6864 8.96782 79.754 6.10584 72.3553 6.10584C64.9565 6.10584 58.003 8.98902 52.7666 14.2254L50.0318 16.9602L47.2546 14.183C42.0183 8.94662 35.0435 6.04224 27.6447 6.04224C20.2672 6.04224 13.3136 8.92542 8.09847 14.1406C2.8621 19.377 -0.0210838 26.3305 0.000116084 33.7293C0.000116084 41.128 2.9045 48.0604 8.14087 53.2967L47.9542 93.1101C48.5054 93.6613 49.2474 93.9581 49.9682 93.9581C50.689 93.9581 51.431 93.6825 51.9822 93.1313L91.8804 53.3815C97.1167 48.1452 99.9999 41.1916 99.9999 33.7929C100.021 26.3941 97.1591 19.4406 91.9228 14.2042ZM87.8524 49.3324L49.9682 87.0681L12.1688 49.2688C8.01367 45.1136 5.72408 39.6016 5.72408 33.7293C5.72408 27.8569 7.99247 22.3449 12.1476 18.211C16.2816 14.077 21.7936 11.7874 27.6447 11.7874C33.5171 11.7874 39.0503 14.077 43.2054 18.2322L47.9966 23.0233C49.1202 24.1469 50.9222 24.1469 52.0458 23.0233L56.7946 18.2746C60.9497 14.1194 66.4829 11.8298 72.3341 11.8298C78.1852 11.8298 83.6972 14.1194 87.8524 18.2534C92.0076 22.4085 94.2759 27.9205 94.2759 33.7929C94.2971 39.6652 92.0076 45.1772 87.8524 49.3324Z" fill="black"/>
</g>
<defs>
<clipPath id="clip0_173_779">
<rect width="100" height="100" fill="white"/>
</clipPath>
</defs>
</svg>
