<svg width="18" height="18" viewBox="0 0 18 18" fill="none" xmlns="http://www.w3.org/2000/svg">
<path d="M11.8285 9L13.2427 10.4142L16.0711 7.5858C17.6332 6.02365 17.6332 3.49099 16.0711 1.9289C14.5091 0.366799 11.9764 0.366799 10.4143 1.9289L7.58594 4.75732L9.00014 6.17154L11.8285 3.34311C12.6096 2.56206 13.8759 2.56206 14.6569 3.34311C15.438 4.12416 15.438 5.39049 14.6569 6.17154L11.8285 9Z" fill="#B5CDF4" fill-opacity="0.5"/>
<path d="M8.99994 11.8286L10.4141 13.2428L7.58574 16.0712C6.02366 17.6333 3.491 17.6333 1.9289 16.0712C0.366799 14.5091 0.366799 11.9765 1.9289 10.4144L4.75733 7.58594L6.17154 9.00014L3.34311 11.8286C2.56206 12.6096 2.56206 13.8759 3.34311 14.657C4.12416 15.438 5.39049 15.438 6.17154 14.657L8.99994 11.8286Z" fill="#B5CDF4" fill-opacity="0.5"/>
<path d="M11.8287 7.58555C12.2192 7.19505 12.2192 6.56184 11.8287 6.17132C11.4381 5.78079 10.805 5.78079 10.4144 6.17132L6.1718 10.4139C5.78127 10.8044 5.78127 11.4376 6.1718 11.8281C6.56232 12.2186 7.1955 12.2186 7.586 11.8281L11.8287 7.58555Z" fill="#B5CDF4" fill-opacity="0.5"/>
</svg>
