<svg width="16" height="16" viewBox="0 0 16 16" fill="none" xmlns="http://www.w3.org/2000/svg">
<path d="M0.176228 15.8475H3.49889C3.67489 15.8475 3.83089 15.7495 3.92889 15.6128L13.0762 0.582832C13.1936 0.387499 13.0569 0.152832 12.8222 0.152832H9.67556C9.51889 0.152832 9.38223 0.230832 9.30423 0.368165L0.0202283 15.5742C-0.0384383 15.6915 0.0395617 15.8475 0.176228 15.8475ZM11.6302 15.6128L15.9496 8.67416C16.0862 8.45883 15.9302 8.1855 15.6762 8.1855H12.5489C12.4316 8.1855 12.3142 8.24416 12.2556 8.34216L7.81889 15.4375C7.70156 15.6135 7.83823 15.8482 8.05356 15.8482H11.2396C11.3956 15.8475 11.5516 15.7695 11.6302 15.6128Z" fill="#B5CDF4"/>
</svg>
